<?xml version="1.0" encoding="utf-8"?>
<!-- Generator: Adobe Illustrator 16.0.0, SVG Export Plug-In . SVG Version: 6.00 Build 0)  -->
<!DOCTYPE svg PUBLIC "-//W3C//DTD SVG 1.1//EN" "http://www.w3.org/Graphics/SVG/1.1/DTD/svg11.dtd">
<svg version="1.1" id="Layer_1" xmlns="http://www.w3.org/2000/svg" xmlns:xlink="http://www.w3.org/1999/xlink" x="0px" y="0px"
	 width="886.77px" height="232.459px" viewBox="0 0 886.77 232.459" enable-background="new 0 0 886.77 232.459"
	 xml:space="preserve">
<path fill-rule="evenodd" clip-rule="evenodd" d="M404.693,161.826c-6.741,3.479-13.357,5.828-20.429,6.83
	c-16.064,2.277-30.995-0.627-44.521-9.774c-15.673-10.6-25.197-25.221-27.676-44.03c-2.483-18.835,2.408-35.695,15.028-50.036
	c19.856-22.563,51.854-28.42,77.912-13.667c20.499,11.605,31.838,29.606,32.473,53.307c0.591,22.064,0.366,44.16,0.083,66.237
	c-0.395,30.884-23.486,56.865-54.056,61.201c-3.363,0.477-6.822,0.682-10.209,0.498c-7.922-0.429-14.349-6.753-15.069-14.451
	c-0.784-8.373,4.218-15.722,12.186-17.696c1.84-0.456,3.787-0.577,5.693-0.655c15.513-0.638,28.159-13.385,28.574-28.895
	C404.758,167.875,404.693,165.051,404.693,161.826z M404.722,106.493c0.085-16.778-13.17-30.273-29.898-30.438
	c-16.783-0.165-30.437,13.272-30.577,30.091c-0.139,16.642,13.306,30.27,29.979,30.388
	C391.18,136.654,404.636,123.399,404.722,106.493z"/>
<path fill-rule="evenodd" clip-rule="evenodd" d="M816.696,118.177c0,11.417,0.127,22.836-0.036,34.251
	c-0.164,11.606-10.926,19.153-21.918,15.582c-6.68-2.17-10.996-8.673-11.008-16.747c-0.025-17.917-0.01-35.834-0.01-53.752
	c0-4.833,0.031-9.667-0.01-14.5c-0.041-4.787-2.959-7.541-7.76-7.414c-16.085,0.426-29.094,13.448-29.244,29.55
	c-0.146,15.5-0.006,31.001-0.061,46.501c-0.031,8.917-5.679,15.809-13.787,17.028c-10.162,1.529-18.859-5.509-18.994-16.213
	c-0.222-17.575-0.318-35.177,0.398-52.731c0.625-15.287,7.527-28.229,18.302-38.879c11.793-11.657,26.164-17.828,42.837-18.197
	c7.55-0.167,14.953,0.923,22.043,3.636c1.803,0.69,3.403,0.739,5.276,0.119c24.652-8.156,46.626-3.243,65.28,14.594
	c11.898,11.378,18.242,25.789,18.571,42.376c0.321,16.245,0.159,32.501,0.083,48.751c-0.039,8.15-5.375,14.828-12.758,16.396
	c-7.674,1.628-15.193-1.866-18.387-9.079c-1.17-2.643-1.621-5.792-1.653-8.719c-0.16-14.916,0.009-29.835-0.101-44.751
	c-0.109-14.794-9.594-26.589-23.715-29.699c-1.778-0.392-3.623-0.579-5.445-0.657c-4.906-0.212-7.813,2.619-7.894,7.552
	c-0.001,0.083-0.001,0.167-0.001,0.25c0,11.584,0,23.167,0,34.751C816.703,118.177,816.7,118.177,816.696,118.177z"/>
<path fill-rule="evenodd" clip-rule="evenodd" d="M33.049,161.868c0,11.321,0.001,22.229,0,33.136
	c-0.001,7.211-2.951,12.728-9.481,16.028c-10.073,5.091-22.646-2.129-23.409-13.379c-0.045-0.664-0.078-1.331-0.078-1.997
	c0.003-30.157-0.237-60.317,0.101-90.471c0.244-21.766,9.813-39.087,27.861-51.099c21.137-14.068,43.496-14.779,65.746-2.87
	c30.679,16.42,41.606,56.307,24.213,86.416c-16.903,29.258-52.974,40.103-83.223,25.022
	C34.345,162.438,33.898,162.253,33.049,161.868z M93.367,106.313c-0.002-16.743-13.409-30.207-30.131-30.26
	C46.506,76,33.125,89.368,33.062,106.199c-0.063,16.989,13.259,30.379,30.185,30.338C80.025,136.495,93.37,123.105,93.367,106.313z"
	/>
<path fill-rule="evenodd" clip-rule="evenodd" d="M538.892,50.794c0-1.429-0.005-2.413,0.001-3.397
	c0.07-10.914-0.101-21.836,0.293-32.738C539.48,6.432,546.897,0.019,555.292,0c8.422-0.02,15.712,6.594,16.334,14.825
	c0.05,0.665,0.087,1.332,0.087,1.998c-0.003,30.25,0.254,60.504-0.107,90.75c-0.258,21.665-9.799,38.924-27.764,50.916
	c-21.222,14.166-43.644,14.883-65.965,2.86c-30.597-16.48-41.435-56.159-24.113-86.278c16.77-29.159,52.921-40.151,83.025-25.248
	C537.297,50.076,537.819,50.301,538.892,50.794z M478.421,106.433c0.126,16.948,13.533,30.194,30.47,30.104
	c16.746-0.09,30.066-13.571,29.971-30.332c-0.097-16.87-13.652-30.292-30.449-30.151C491.693,76.194,478.297,89.764,478.421,106.433
	z"/>
<path fill-rule="evenodd" clip-rule="evenodd" d="M705.828,105.992c-0.291,35.175-28.617,63.288-63.455,62.977
	c-35.027-0.312-63.012-28.777-62.695-63.773c0.315-34.73,28.821-62.891,63.367-62.598C678.09,42.894,706.117,71.193,705.828,105.992
	z M612.582,105.833c0.057,16.858,13.55,30.251,30.381,30.154c16.664-0.096,30.115-13.63,30.094-30.278
	c-0.021-16.749-13.677-30.254-30.466-30.134C625.814,75.694,612.527,89.093,612.582,105.833z"/>
<path fill-rule="evenodd" clip-rule="evenodd" d="M303.546,126.013c0,8.666,0.056,17.333-0.016,25.999
	c-0.077,9.281-5.698,16.031-14.158,17.177c-9.698,1.313-18.071-5.505-18.642-15.314c-0.203-3.489-0.077-6.998-0.08-10.497
	c-0.009-12.5,0.087-25.001-0.037-37.5c-0.14-14.114-9.841-25.96-23.602-29.109c-18.398-4.209-36.478,9.657-36.789,28.521
	c-0.259,15.662-0.041,31.332-0.091,46.999c-0.028,8.673-5.598,15.589-13.403,16.815c-10.537,1.655-19.241-5.287-19.372-16.256
	c-0.21-17.575-0.399-35.183,0.431-52.729c0.752-15.902,8.1-29.22,19.711-39.997c13.828-12.835,30.338-18.267,49.096-16.573
	c15.859,1.432,29.188,8.268,40.002,19.855c11.82,12.666,17.204,27.844,16.962,45.108
	C303.478,114.345,303.546,120.179,303.546,126.013z"/>
<path fill-rule="evenodd" clip-rule="evenodd" d="M167.139,106.524c0,15.245,0.04,30.49-0.015,45.734
	c-0.033,9.255-5.781,15.836-14.649,16.985c-8.435,1.094-16.406-4.681-17.953-13.046c-0.226-1.223-0.354-2.481-0.354-3.725
	c-0.019-30.739-0.041-61.479,0.002-92.218c0.011-8.202,4.602-14.314,12.042-16.4c9.642-2.702,19.491,3.765,20.726,13.696
	c0.266,2.138,0.192,4.324,0.194,6.487C167.146,78.201,167.139,92.362,167.139,106.524z"/>
<path fill-rule="evenodd" clip-rule="evenodd" d="M150.526,0.001c9.098-0.035,16.543,7.338,16.593,16.431
	c0.049,9.042-7.411,16.501-16.513,16.51c-8.998,0.009-16.345-7.28-16.436-16.306C134.078,7.522,141.439,0.036,150.526,0.001z"/>
</svg>
